# xmcd
#
# Track frame offsets:
#	150
#	13934
#	33724
#	49931
#	63038
#	83515
#	101064
#	113078
#	129902
#	149866
#
# Disc length: 2233 seconds
#
# Revision: 1
# Processed by: cddbd v1.5.2PL0 Copyright (c) Steve Scherf et al.
# Submitted via: audiograbber 1.83.01
#
DISCID=8808b70a
DTITLE=Owen Mac - Especially For You
DYEAR=2017
DGENRE=Country
TTITLE0=Street of Promise
TTITLE1=My Mother
TTITLE2=God's Plan
TTITLE3=Achill Island
TTITLE4=Play Me The Waltz Of The Angels
TTITLE5=You, Me and Time
TTITLE6=Marlena
TTITLE7=I Won't Let Go
TTITLE8=Life Is A River
TTITLE9=God Bless The Broken Road
EXTD=
EXTT0=
EXTT1=
EXTT2=
EXTT3=
EXTT4=
EXTT5=
EXTT6=
EXTT7=
EXTT8=
EXTT9=
PLAYORDER=
